# xmcd
#
# Track frame offsets:
#	150
#	19702
#	36007
#	62820
#	73617
#	91540
#	103307
#	120804
#	134722
#	147237
#	171672
#	185820
#	205150
#	219957
#	234800
#	247237
#	261042
#	281682
#
# Disc length: 3994
#
# Revision: 4
# Processed by: cddbd v1.5.1PL0 Copyright (c) Steve Scherf et al.
# Submitted via: OrangeCD 5.2
# Normalized: r3:DSETVAR1
#
DISCID=0d0f9812
DTITLE=Various Artist - Line Dance Fever 3
DYEAR=1997
DGENRE=Country
TTITLE0=Twister Alley - Dance
TTITLE1=Boz Scaggs - Fly Like A Bird
TTITLE2=Arrow - Hot-Hot-Hot (Caribbean Cowboy Mix)
TTITLE3=Sammy Kershaw - Your Tattoo
TTITLE4=Al Anderson - It Came From The South
TTITLE5=Kimber Clayton - If Wishes Were Horses
TTITLE6=Jann Browne - Mexican Wind
TTITLE7=Jeff Moore - Wrangler Butts
TTITLE8=Tim McGraw - Refried Dreams
TTITLE9=James T. Horn - If My Heart Had An A-- (Club Mix)
TTITLE10=Ronnie McDowell - Smokey Places
TTITLE11=Hal Ketchum - Hang In There Superman (Radio Edit)
TTITLE12=Wyonna - Girls With Guitars
TTITLE13=Jeffrey Steele - A Girl Like You
TTITLE14=Hank Williams Jr. - Born To Boogie
TTITLE15=Perfect Stranger - Fire When Ready
TTITLE16=Sawyer Brown - Six Days On The Road (Club Mix)
TTITLE17=Just Luis - American Pie (Radio Edit)
EXTD=
EXTT0=Bayou city Twister - CMT Dance Range Romb
EXTT1=Fly Like A Bird
EXTT2=Caribbean Cadence - Hot-Hot-Hot
EXTT3=Scooch - Cajun Slap
EXTT4=Kelly´s Canibals - Hardwood Stomp
EXTT5=Ridin´ - Radio Romp
EXTT6=Mexican Wind - Midnight Waltz
EXTT7=Wrangler Butts - Catfish
EXTT8=Wild Wild West - Zona Rosa
EXTT9=Rompin´Stompin´/ Footboogie
EXTT10=Smokey Places
EXTT11=Cowboy Strut - Lunatic Cowboy
EXTT12=Saloon Scissor Stomp /Strutting star
EXTT13=Fallin´/ Cowgirl Twist
EXTT14=Cowboogie - Twist ´EM
EXTT15=Outta Line - Electric Slide 
EXTT16=Tush Push - Slappin´ Leather
EXTT17=American Pie
PLAYORDER=
